<svg width="909" height="327" viewBox="0 0 909 327" fill="none" xmlns="http://www.w3.org/2000/svg">
<path d="M172.237 300.631C165.123 308.121 156.545 314.065 147.036 318.098C137.527 322.131 127.289 324.166 116.96 324.074H2.55803C2.40906 324.064 2.26911 323.999 2.16684 323.889C2.06458 323.783 2.00775 323.638 2.00801 323.49V31.7482C2.00502 31.6353 2.03688 31.5241 2.09927 31.4299C2.16166 31.3356 2.25155 31.263 2.35671 31.2218C2.46188 31.1804 2.57722 31.1724 2.68703 31.199C2.79685 31.2257 2.89583 31.2853 2.97052 31.37L170.38 198.722C183.818 212.168 191.519 230.298 191.865 249.302C192.211 268.307 185.176 286.706 172.237 300.631Z" fill="#FFBE3C"/>
<g opacity="0.2">
<path opacity="0.2" d="M191.865 131.94C191.758 140.626 189.781 149.186 186.067 157.039C182.354 164.892 176.992 171.853 170.346 177.447L2.00781 324.863V67.46H118.542C137.546 67.2967 155.973 73.9832 170.449 86.2952C177.093 91.9145 182.447 98.9014 186.143 106.779C189.839 114.656 191.791 123.239 191.865 131.94Z" fill="black"/>
<path opacity="0.2" d="M191.865 131.94C191.758 140.626 189.781 149.186 186.067 157.039C182.354 164.892 176.992 171.853 170.346 177.447L2.00781 324.863V67.46H118.542C137.546 67.2967 155.973 73.9832 170.449 86.2952C177.093 91.9145 182.447 98.9014 186.143 106.779C189.839 114.656 191.791 123.239 191.865 131.94Z" fill="black"/>
<path opacity="0.2" d="M191.865 131.94C191.758 140.626 189.781 149.186 186.067 157.039C182.354 164.892 176.992 171.853 170.346 177.447L2.00781 324.863V67.46H118.542C137.546 67.2967 155.973 73.9832 170.449 86.2952C177.093 91.9145 182.447 98.9014 186.143 106.779C189.839 114.656 191.791 123.239 191.865 131.94Z" fill="black"/>
<path opacity="0.2" d="M191.865 131.94C191.758 140.626 189.781 149.186 186.067 157.039C182.354 164.892 176.992 171.853 170.346 177.447L2.00781 324.863V67.46H118.542C137.546 67.2967 155.973 73.9832 170.449 86.2952C177.093 91.9145 182.447 98.9014 186.143 106.779C189.839 114.656 191.791 123.239 191.865 131.94Z" fill="black"/>
</g>
<path d="M191.866 104.615C191.879 114.257 189.984 123.807 186.291 132.714C182.598 141.622 177.179 149.71 170.346 156.515L1.90503 324.934V31.1982H118.542C137.998 31.2256 156.648 38.9726 170.396 52.7379C184.144 66.5031 191.866 85.1612 191.866 104.615Z" fill="#18E4CD"/>
<path d="M253.893 164.013H259.627L288.21 232.797H281.025L272.115 211.268H241.217L232.389 232.797H225.121L253.893 164.013ZM270.581 205.967L256.719 171.952L242.67 205.967H270.581Z" fill="black"/>
<path d="M304.87 176.607V232.797H298.14V164.013H303.362L348.902 221.28V164.12H355.685V232.797H349.791L304.87 176.607Z" fill="black"/>
<path d="M276.424 67.649C280.957 68.711 284.533 70.9059 287.152 74.2337C289.844 77.5615 291.189 81.4201 291.189 85.81C291.189 92.253 289.03 97.2801 284.709 100.891C280.46 104.502 274.336 106.308 266.333 106.308H231.387V31.2207H265.483C273.131 31.2207 279.045 32.8845 283.222 36.2123C287.401 39.5401 289.489 44.2839 289.489 50.4438C289.489 54.9751 288.287 58.7632 285.878 61.8077C283.471 64.7814 280.32 66.7286 276.424 67.649ZM249.551 61.9139H261.447C267.75 61.9139 270.901 59.2233 270.901 53.8423C270.901 48.4614 267.68 45.7708 261.235 45.7708H249.551V61.9139ZM262.509 91.5451C269.237 91.5451 272.6 88.7837 272.6 83.2611C272.6 80.5705 271.716 78.4819 269.945 76.995C268.175 75.4374 265.662 74.6585 262.403 74.6585H249.551V91.5451H262.509ZM316.822 91.1202H344.226V106.308H296.959V91.9699L322.451 62.1263H297.383V47.0452H343.164V61.3829L316.822 91.1202Z" fill="black"/>
<path d="M394.201 164.013H399.907L428.491 232.797H421.331L412.422 211.268H381.578L372.777 232.797H365.429L394.201 164.013ZM410.861 205.967L397.001 171.952L382.951 205.967H410.861Z" fill="black"/>
<path d="M438.395 232.797V164.013H445.177V226.797H484.904V232.797H438.395Z" fill="black"/>
<path d="M483.531 164.014L506.006 201.016L528.695 164.014H536.043L509.398 207.233V232.8H502.694V207.019L476.156 163.96L483.531 164.014Z" fill="black"/>
<path d="M595.067 170.014H570.548V232.797H563.765V170.014H539.245V164.013H595.067V170.014Z" fill="black"/>
<path d="M605.323 232.797V164.013H612.106V232.797H605.323Z" fill="black"/>
<path d="M624.809 197.921C624.824 193.71 625.562 189.533 626.988 185.57C628.402 181.537 630.556 177.805 633.341 174.563C636.197 171.277 639.685 168.595 643.595 166.678C647.912 164.589 652.661 163.547 657.456 163.637C662.999 163.467 668.471 164.916 673.202 167.808C677.393 170.383 680.741 174.124 682.837 178.573L677.454 181.856C676.46 179.735 675.104 177.804 673.444 176.151C671.942 174.721 670.248 173.508 668.41 172.545C666.641 171.599 664.748 170.901 662.786 170.473C660.912 170.05 659 169.833 657.079 169.827C653.276 169.755 649.513 170.624 646.125 172.356C643.003 173.966 640.253 176.212 638.05 178.949C635.873 181.675 634.213 184.776 633.153 188.099C632.064 191.427 631.51 194.906 631.51 198.407C631.486 202.15 632.163 205.864 633.502 209.359C634.741 212.737 636.561 215.87 638.885 218.616C641.119 221.271 643.866 223.45 646.96 225.022C650.131 226.615 653.638 227.427 657.187 227.389C659.192 227.382 661.187 227.137 663.135 226.663C665.203 226.17 667.189 225.383 669.031 224.322C670.998 223.259 672.811 221.927 674.414 220.366C676.087 218.694 677.462 216.744 678.477 214.607L684.102 217.514C683.012 220.067 681.43 222.38 679.446 224.322C677.458 226.283 675.212 227.968 672.771 229.327C670.309 230.68 667.686 231.719 664.966 232.423C662.329 233.117 659.617 233.477 656.891 233.498C652.375 233.543 647.919 232.47 643.919 230.376C640.027 228.385 636.569 225.641 633.745 222.305C630.883 218.946 628.631 215.111 627.097 210.975C625.545 206.799 624.769 202.376 624.809 197.921Z" fill="black"/>
<path d="M736.048 176.904C733.914 174.537 731.261 172.695 728.296 171.522C724.785 170.1 721.022 169.404 717.234 169.476C711.179 169.476 706.737 170.634 703.966 172.921C702.596 174.05 701.508 175.48 700.783 177.101C700.059 178.721 699.721 180.486 699.793 182.259C699.723 184.024 700.112 185.777 700.924 187.346C701.747 188.77 702.925 189.957 704.342 190.79C706.216 191.889 708.224 192.739 710.318 193.32C712.74 194.02 715.699 194.746 718.877 195.446C722.234 196.161 725.549 197.058 728.808 198.137C731.479 198.964 734.011 200.189 736.317 201.769C738.311 203.159 739.944 205.005 741.082 207.151C742.258 209.571 742.821 212.242 742.723 214.929C742.768 217.728 742.141 220.497 740.892 223.002C739.669 225.324 737.905 227.317 735.752 228.815C733.377 230.458 730.709 231.628 727.892 232.261C721.354 233.792 714.55 233.788 708.014 232.252C701.477 230.716 695.383 227.689 690.212 223.406L693.792 217.889C695.138 219.261 696.618 220.495 698.205 221.576C700.015 222.771 701.934 223.789 703.939 224.618C706.107 225.513 708.363 226.19 710.667 226.636C713.158 227.131 715.692 227.374 718.23 227.363C722.7 227.615 727.152 226.598 731.069 224.429C732.528 223.482 733.709 222.168 734.498 220.619C735.287 219.069 735.655 217.339 735.564 215.602C735.621 213.721 735.164 211.86 734.244 210.22C733.264 208.653 731.915 207.351 730.316 206.425C728.271 205.268 726.092 204.363 723.829 203.734C721.138 202.954 718.23 202.173 714.812 201.394C711.394 200.612 708.029 199.698 705.311 198.702C702.858 197.94 700.542 196.796 698.448 195.311C696.652 194.058 695.199 192.374 694.222 190.413C693.219 188.212 692.739 185.807 692.822 183.39C692.769 180.463 693.388 177.564 694.626 174.913C695.787 172.462 697.534 170.336 699.713 168.723C702.045 167.003 704.672 165.725 707.464 164.955C710.675 164.037 714.004 163.592 717.342 163.637C721.519 163.566 725.673 164.278 729.588 165.736C733.15 167.103 736.446 169.079 739.331 171.575L736.048 176.904Z" fill="black"/>
<path d="M727.664 91.1897C726.78 91.1897 725.906 91.0156 725.088 90.6776C724.273 90.3395 723.531 89.8439 722.905 89.2192C722.281 88.5945 721.786 87.8528 721.446 87.0365C721.109 86.2202 720.934 85.3454 720.934 84.4618V45.8711H683.255C681.47 45.8711 679.757 45.1622 678.496 43.9006C677.234 42.6389 676.525 40.9277 676.525 39.1432C676.525 37.359 677.234 35.6478 678.496 34.386C679.757 33.1243 681.47 32.4155 683.255 32.4155H734.392V84.4618C734.392 85.3454 734.219 86.2202 733.88 87.0365C733.542 87.8528 733.047 88.5945 732.421 89.2192C731.797 89.8439 731.055 90.3395 730.238 90.6776C729.422 91.0156 728.548 91.1897 727.664 91.1897Z" fill="black"/>
<path d="M671.506 102.289C670.18 102.263 668.89 101.847 667.798 101.093C666.707 100.339 665.861 99.2806 665.368 98.0494C664.875 96.8182 664.754 95.4688 665.023 94.1697C665.29 92.8706 665.935 91.6792 666.876 90.7442L721.137 36.3027C721.723 35.5448 722.465 34.9209 723.311 34.4725C724.159 34.0244 725.09 33.7619 726.048 33.7031C727.004 33.6443 727.962 33.7904 728.857 34.1315C729.752 34.4727 730.564 35.0011 731.239 35.6814C731.913 36.3616 732.434 37.1781 732.768 38.0763C733.102 38.9743 733.24 39.9332 733.172 40.8888C733.106 41.8445 732.835 42.7747 732.379 43.6175C731.924 44.4603 731.294 45.196 730.53 45.7756L676.271 100.244C675.652 100.885 674.913 101.397 674.095 101.748C673.276 102.099 672.396 102.283 671.506 102.289Z" fill="black"/>
<path d="M241.454 309.332H232.318L230.806 313.703H225.975L234.224 290.731H239.581L247.83 313.703H242.966L241.454 309.332ZM240.206 305.651L236.886 296.055L233.567 305.651H240.206ZM280.303 302.201C280.303 299.944 280.807 297.928 281.815 296.154C282.845 294.357 284.236 292.966 285.989 291.98C287.764 290.972 289.746 290.468 291.937 290.468C294.501 290.468 296.747 291.125 298.675 292.44C300.603 293.754 301.95 295.573 302.717 297.895H297.426C296.9 296.8 296.155 295.978 295.191 295.431C294.249 294.883 293.153 294.609 291.904 294.609C290.568 294.609 289.374 294.927 288.322 295.562C287.293 296.175 286.482 297.052 285.89 298.191C285.321 299.33 285.036 300.667 285.036 302.201C285.036 303.712 285.321 305.049 285.89 306.21C286.482 307.349 287.293 308.237 288.322 308.872C289.374 309.486 290.568 309.792 291.904 309.792C293.153 309.792 294.249 309.518 295.191 308.971C296.155 308.401 296.9 307.568 297.426 306.473H302.717C301.95 308.817 300.603 310.647 298.675 311.961C296.768 313.254 294.523 313.9 291.937 313.9C289.746 313.9 287.764 313.407 285.989 312.421C284.236 311.414 282.845 310.022 281.815 308.248C280.807 306.473 280.303 304.457 280.303 302.201ZM322.586 310.055H330.145V313.703H317.985V290.764H322.586V310.055ZM355.055 313.933C352.908 313.933 350.936 313.429 349.14 312.421C347.343 311.414 345.919 310.022 344.867 308.248C343.816 306.451 343.29 304.424 343.29 302.168C343.29 299.933 343.816 297.928 344.867 296.154C345.919 294.357 347.343 292.955 349.14 291.947C350.936 290.939 352.908 290.435 355.055 290.435C357.224 290.435 359.196 290.939 360.971 291.947C362.768 292.955 364.181 294.357 365.21 296.154C366.262 297.928 366.788 299.933 366.788 302.168C366.788 304.424 366.262 306.451 365.21 308.248C364.181 310.022 362.768 311.414 360.971 312.421C359.174 313.429 357.202 313.933 355.055 313.933ZM355.055 309.825C356.436 309.825 357.652 309.518 358.703 308.905C359.755 308.27 360.577 307.371 361.168 306.21C361.76 305.049 362.055 303.701 362.055 302.168C362.055 300.634 361.76 299.298 361.168 298.158C360.577 296.997 359.755 296.11 358.703 295.496C357.652 294.883 356.436 294.576 355.055 294.576C353.675 294.576 352.448 294.883 351.375 295.496C350.323 296.11 349.501 296.997 348.91 298.158C348.318 299.298 348.022 300.634 348.022 302.168C348.022 303.701 348.318 305.049 348.91 306.21C349.501 307.371 350.323 308.27 351.375 308.905C352.448 309.518 353.675 309.825 355.055 309.825ZM386.084 290.764V304.961C386.084 306.517 386.49 307.711 387.3 308.543C388.111 309.354 389.25 309.759 390.718 309.759C392.208 309.759 393.358 309.354 394.169 308.543C394.98 307.711 395.385 306.517 395.385 304.961V290.764H400.019V304.928C400.019 306.878 399.592 308.532 398.737 309.891C397.905 311.227 396.776 312.235 395.352 312.914C393.95 313.594 392.383 313.933 390.653 313.933C388.944 313.933 387.388 313.594 385.986 312.914C384.605 312.235 383.51 311.227 382.699 309.891C381.889 308.532 381.483 306.878 381.483 304.928V290.764H386.084ZM423.821 290.764C426.231 290.764 428.346 291.235 430.164 292.177C432.005 293.119 433.418 294.467 434.404 296.219C435.412 297.95 435.915 299.966 435.915 302.266C435.915 304.567 435.412 306.583 434.404 308.313C433.418 310.022 432.005 311.348 430.164 312.29C428.346 313.232 426.231 313.703 423.821 313.703H415.802V290.764H423.821ZM423.657 309.792C426.067 309.792 427.929 309.135 429.244 307.82C430.559 306.506 431.216 304.654 431.216 302.266C431.216 299.878 430.559 298.016 429.244 296.679C427.929 295.321 426.067 294.642 423.657 294.642H420.403V309.792H423.657ZM505.955 302.201C505.955 299.944 506.459 297.928 507.467 296.154C508.497 294.357 509.888 292.966 511.641 291.98C513.416 290.972 515.398 290.468 517.589 290.468C520.153 290.468 522.399 291.125 524.327 292.44C526.255 293.754 527.602 295.573 528.369 297.895H523.078C522.552 296.8 521.807 295.978 520.843 295.431C519.901 294.883 518.805 294.609 517.557 294.609C516.22 294.609 515.026 294.927 513.974 295.562C512.945 296.175 512.134 297.052 511.542 298.191C510.973 299.33 510.688 300.667 510.688 302.201C510.688 303.712 510.973 305.049 511.542 306.21C512.134 307.349 512.945 308.237 513.974 308.872C515.026 309.486 516.22 309.792 517.557 309.792C518.805 309.792 519.901 309.518 520.843 308.971C521.807 308.401 522.552 307.568 523.078 306.473H528.369C527.602 308.817 526.255 310.647 524.327 311.961C522.42 313.254 520.175 313.9 517.589 313.9C515.398 313.9 513.416 313.407 511.641 312.421C509.888 311.414 508.497 310.022 507.467 308.248C506.459 306.473 505.955 304.457 505.955 302.201ZM554.285 313.933C552.138 313.933 550.166 313.429 548.369 312.421C546.573 311.414 545.149 310.022 544.097 308.248C543.045 306.451 542.52 304.424 542.52 302.168C542.52 299.933 543.045 297.928 544.097 296.154C545.149 294.357 546.573 292.955 548.369 291.947C550.166 290.939 552.138 290.435 554.285 290.435C556.454 290.435 558.426 290.939 560.201 291.947C561.997 292.955 563.41 294.357 564.44 296.154C565.492 297.928 566.018 299.933 566.018 302.168C566.018 304.424 565.492 306.451 564.44 308.248C563.41 310.022 561.997 311.414 560.201 312.421C558.404 313.429 556.432 313.933 554.285 313.933ZM554.285 309.825C555.665 309.825 556.881 309.518 557.933 308.905C558.985 308.27 559.806 307.371 560.398 306.21C560.989 305.049 561.285 303.701 561.285 302.168C561.285 300.634 560.989 299.298 560.398 298.158C559.806 296.997 558.985 296.11 557.933 295.496C556.881 294.883 555.665 294.576 554.285 294.576C552.905 294.576 551.678 294.883 550.604 295.496C549.553 296.11 548.731 296.997 548.139 298.158C547.548 299.298 547.252 300.634 547.252 302.168C547.252 303.701 547.548 305.049 548.139 306.21C548.731 307.371 549.553 308.27 550.604 308.905C551.678 309.518 552.905 309.825 554.285 309.825ZM605.789 290.764V313.703H601.188V298.783L595.042 313.703H591.558L585.38 298.783V313.703H580.779V290.764H586.004L593.3 307.82L600.596 290.764H605.789ZM638.404 297.863C638.404 299.089 638.108 300.24 637.516 301.313C636.947 302.387 636.037 303.252 634.788 303.91C633.562 304.567 632.006 304.895 630.122 304.895H626.277V313.703H621.676V290.764H630.122C631.896 290.764 633.408 291.071 634.657 291.684C635.906 292.297 636.837 293.141 637.451 294.215C638.086 295.288 638.404 296.504 638.404 297.863ZM629.925 301.182C631.195 301.182 632.137 300.897 632.751 300.327C633.364 299.736 633.671 298.914 633.671 297.863C633.671 295.628 632.422 294.51 629.925 294.51H626.277V301.182H629.925ZM667.074 309.332H657.938L656.426 313.703H651.595L659.844 290.731H665.201L673.45 313.703H668.586L667.074 309.332ZM665.826 305.651L662.506 296.055L659.187 305.651H665.826ZM707.492 313.703H702.891L692.473 297.961V313.703H687.872V290.731H692.473L702.891 306.506V290.731H707.492V313.703ZM741.616 290.764L733.86 305.717V313.703H729.259V305.717L721.47 290.764H726.663L731.593 301.248L736.489 290.764H741.616Z" fill="black"/>
<path d="M467.787 317.745L464.304 313.572C463.34 313.813 462.354 313.933 461.346 313.933C459.199 313.933 457.227 313.429 455.43 312.421C453.634 311.414 452.209 310.022 451.158 308.248C450.106 306.451 449.58 304.424 449.58 302.168C449.58 299.933 450.106 297.928 451.158 296.154C452.209 294.357 453.634 292.955 455.43 291.947C457.227 290.939 459.199 290.435 461.346 290.435C463.515 290.435 465.487 290.939 467.261 291.947C469.058 292.955 470.471 294.357 471.501 296.154C472.552 297.928 473.078 299.933 473.078 302.168C473.078 304.205 472.64 306.068 471.764 307.755C470.909 309.42 469.737 310.778 468.247 311.83L473.506 317.745H467.787ZM454.313 302.168C454.313 303.701 454.609 305.049 455.2 306.21C455.792 307.371 456.613 308.27 457.665 308.905C458.739 309.518 459.965 309.825 461.346 309.825C462.726 309.825 463.942 309.518 464.994 308.905C466.045 308.27 466.867 307.371 467.459 306.21C468.05 305.049 468.346 303.701 468.346 302.168C468.346 300.634 468.05 299.298 467.459 298.158C466.867 296.997 466.045 296.11 464.994 295.496C463.942 294.883 462.726 294.576 461.346 294.576C459.965 294.576 458.739 294.883 457.665 295.496C456.613 296.11 455.792 296.997 455.2 298.158C454.609 299.298 454.313 300.634 454.313 302.168Z" fill="#F7981F"/>
</svg>
